# xmcd
#
# Track frame offsets: 
#        150
#        33215
#        56082
#        80437
#        109709
#        140459
#        177072
#        214011
#        253305
#        280859
#        299969
#        320339
#
# Disc length: 4642 seconds
#
# Revision: 1
# Processed by: cddbd v1.5.2PL0 Copyright (c) Steve Scherf et al.
# Submitted via: ExactAudioCopy v1.1
#
DISCID=b612200c
DTITLE=Tomorrow's Jazz Classics - Ballads 2003
DYEAR=2003
DGENRE=Jazz
TTITLE0=Martin Sasse Trio feat. Peter Bernstein - Search For Love
TTITLE1=Marc Copland and Greg Osby - Silent Attitude
TTITLE2=Lyambiko - Tenderly
TTITLE3=Loren Stillman - Happy
TTITLE4=Eric Reed - I Love You Lord
TTITLE5=Wycliffe Gordon - I Can't Get Started
TTITLE6=Donald Harrison and Ron Carter - My Funny Valentine
TTITLE7=Harry "Sweets" Edison - Wave
TTITLE8=Stephan Noel Lang - Parting
TTITLE9=Peter Weniger and Martin Wind - Little Prayer
TTITLE10=Ken Peplowski Quartet - Balad For Very Tired And Very Sad Lot
TTITLE10=us Eaters
TTITLE11=Claus Koch - Ghost Of A Chance
EXTD=YEAR: 2003
EXTT0=
EXTT1=
EXTT2=
EXTT3=
EXTT4=
EXTT5=
EXTT6=
EXTT7=
EXTT8=
EXTT9=
EXTT10=
EXTT11=
PLAYORDER=
